<svg xmlns="http://www.w3.org/2000/svg" xmlns:xlink="http://www.w3.org/1999/xlink" width="50px" height="56px" viewBox="0 0 50 56" version="1.1">
    <title>268A5493-EAF6-49A7-A312-49D65EA9B890</title>
    <g id="Page-1" stroke="none" stroke-width="1" fill="none" fill-rule="evenodd">
        <g id="Home-Page---Loged-in" transform="translate(-447.000000, -3140.000000)" fill-rule="nonzero">
            <g id="Group-27" transform="translate(240.000000, 2994.474053)">
                <g id="Group-4" transform="translate(0.000000, 130.000000)">
                    <g id="MOJ-Logo-Copy-4" transform="translate(166.765293, 0.000000)">
                        <g id="Modon" transform="translate(40.926954, 15.712341)">
                            <polygon id="Fill-11" fill="#52B2DB" points="15.5700244 14.8294178 15.5700244 32.3308848 6.11522695 37.0081895 6.11522695 19.4926643"/>
                            <polygon id="Fill-13" fill="#52B2DB" points="39.9993115 20.8785798 39.9993115 34.8273946 42.5579175 33.578718 42.5579175 22.141627"/>
                            <polygon id="Fill-15" fill="#296680" points="24.2382241 0 17.3049964 4.65418686 17.3049964 14.0975188 22.1374346 16.4764713 22.1374346 44.4731327 24.2382241 45.1079367"/>
                            <polygon id="Fill-18" fill="#8CC440" points="37.9456419 13.933101 37.9456419 19.8406505 35.4240721 18.6016583 35.4240721 34.8641333 28.9122473 31.7054218 28.9122473 19.5263726 33.1138262 17.4563873 33.1138262 11.5585222"/>
                            <polygon id="Fill-20" fill="#296680" points="25.2117144 50.9928682 34.5535361 54.9966311 48.6263357 54.9966311 29.9090796 48.9797402"/>
                            <polygon id="Fill-22" fill="#52B2DB" points="9.13728262 42.7755011 6.03776229 42.7755011 18.7333777 48.2166323 23.0438865 46.9298424"/>
                            <polygon id="Fill-24" fill="#8CC440" points="39.4537598 42.7755011 25.7843118 46.8589269 24.2950855 47.3037894 19.7620487 48.6577459 19.3316202 48.7861439 0 54.9961 14.0373196 54.9961 23.6458637 50.8789347 24.2950855 50.6005832 28.8284335 48.6577459 30.1050911 48.1104151 42.552969 42.7755011"/>
                        </g>
                    </g>
                </g>
            </g>
        </g>
    </g>
</svg>