<svg viewBox="233.39519207920796 129.77008080000002 378.6717912305516 315.49606800000004" version="1.1" xmlns:xlink="http://www.w3.org/1999/xlink" xmlns="http://www.w3.org/2000/svg" style="max-height: 500px" width="378.6717912305516" height="315.49606800000004">
<defs>
<clipPath id="clip_0">
<path d="M.003707109 0H841.88607V595.2756H.003707109Z" transform="matrix(1,0,0,-1,0,595.2756)"/>
</clipPath>
</defs>
<g clip-path="url(#clip_0)">
<path fill="#00aeef" d="M499.2756 238.8855V213.6848C498.3746 217.5157 494.9356 220.3677 490.8296 220.3677H466.8529V238.8855H457.422V192.418H466.8529V210.9358H499.2756V192.418H508.7085V238.8855Z" transform="matrix(1,0,0,-1,0,595.2756)"/>
<path fill="#00aeef" d="M379.7371 219.6328C376.1971 222.3408 371.6951 223.3008 367.3832 222.2688L358.7482 220.2718V220.2738L349.3413 218.0978 349.3003 218.0878C347.7153 217.7068 346.1194 218.0488 344.8064 219.0528 343.4234 220.1118 342.6004 221.7438 342.5494 223.5318 342.5034 225.1528 343.0874 226.6707 344.1944 227.8097 345.2324 228.8777 346.6054 229.4657 348.0623 229.4657H381.837V238.8296H348.0623C344.0534 238.8296 340.2954 237.2346 337.4784 234.3357 334.5935 231.3677 333.0705 227.4367 333.1895 223.2658 333.3205 218.6428 335.4815 214.3959 339.1174 211.6149 341.7254 209.6199 344.8554 208.5729 348.0473 208.5729 349.1883 208.5729 350.3363 208.7069 351.4723 208.9799L360.1062 210.9759V210.9749L369.5121 213.1499 369.5541 213.1589C371.1391 213.5419 372.7351 213.1989 374.0481 212.1949 375.4311 211.1369 376.2541 209.5049 376.3041 207.7159 376.3501 206.0959 375.7671 204.5769 374.6601 203.439 373.6221 202.37 372.2481 201.782 370.7921 201.782H336.7594V192.4181H370.7921C374.8001 192.4181 378.5591 194.014 381.376 196.912 384.26 199.88 385.784 203.8119 385.665 207.9829 385.533 212.6059 383.373 216.8518 379.7371 219.6328" transform="matrix(1,0,0,-1,0,595.2756)"/>
<path fill="#00aeef" d="M426.0838 209.2218 414.0129 201.9099 413.9829 201.9699 412.67 201.1259 412.641 201.1089C410.213 199.6799 407.082 200.0779 405.181 202.1579 403.548 203.9438 403.115 206.3118 403.975 208.4888 404.731 210.4048 406.321 211.7438 408.337 212.1648L437.1597 218.0697V207.3998C434.4698 210.6028 429.7728 211.4558 426.0838 209.2218M437.6777 238.7995H398.3881V229.3676H437.1597C437.1597 228.3786 436.4657 227.5266 435.4967 227.3256L406.441 221.3337 406.432 221.3327C401.3481 220.2737 397.1741 216.7577 395.2661 211.9278 393.3581 207.0988 394.0031 201.6789 396.9901 197.4319 399.2261 194.2539 402.549 192.056 406.348 191.243 407.42 191.013 408.503 190.899 409.581 190.9 412.313 190.9 414.6249 191.525 417.4029 193.0469L417.4219 193.0579 417.4429 193.0189 437.1597 204.9628V192.488H446.3567V200.2729 228.8826 229.3676 229.5656 230.1196C446.3567 234.9136 442.4717 238.7995 437.6777 238.7995" transform="matrix(1,0,0,-1,0,595.2756)"/>
<path fill="#2e69b3" d="M516.2187 298.4807 468.8891 298.4407H468.8791C465.6792 298.4407 462.6892 300.1617 461.0892 302.9406L451.0323 320.6055 453.7813 318.5595C458.2572 315.2275 464.2062 314.6355 469.2521 317.0205L507.9488 335.3104C514.0587 338.2013 520.8487 337.8003 526.5786 334.1704 532.2886 330.5604 535.5785 324.6005 535.5785 317.8215 535.5785 307.1516 526.8996 298.4807 516.2187 298.4807M537.2685 351.0812C525.7986 358.3401 511.6288 359.2011 499.3689 353.3902L446.4394 328.2914 420.7596 372.71 411.8707 388.1929C406.1977 398.0758 395.6708 404.1697 384.2749 404.1697H323.0305V384.1609H382.3799C387.7699 384.1609 392.7798 381.2509 395.4698 376.581L401.1398 366.7011H337.6913C319.6715 366.7011 298.5887 353.3842 291.3508 336.8813 279.6119 310.1126 289.1708 282.0268 311.4306 268.181 320.0705 262.792 329.7904 260.082 339.5503 260.082 347.5502 260.082 355.5802 261.902 363.0601 265.582L423.8296 294.6307 413.7896 312.0106 354.3802 283.6108 354.2802 283.5608C343.8903 278.4519 331.8304 279.0509 322.0005 285.1618 307.4316 294.2407 301.5567 313.0926 310.6466 330.5174 315.3145 339.4653 327.5794 346.6912 337.6723 346.6912L412.6897 346.6902 443.7594 292.9207C446.3394 288.4518 450.0393 284.8318 454.3893 282.3218 458.7292 279.8219 463.7192 278.4309 468.8791 278.4309H468.9091L516.2287 278.4709C537.9285 278.4709 555.5884 296.1217 555.5884 317.8215 555.5884 331.3904 548.7394 343.8313 537.2685 351.0812" transform="matrix(1,0,0,-1,0,595.2756)"/>
</g>
</svg>