<?xml version="1.0" encoding="UTF-8"?>
<svg width="51px" height="47px" viewBox="0 0 51 47" version="1.1" xmlns="http://www.w3.org/2000/svg" xmlns:xlink="http://www.w3.org/1999/xlink">
    <title>Group 7</title>
    <defs>
        <polygon id="path-1" points="0.0138852558 0.0819444444 30.5625 0.0819444444 30.5625 36.7843284 0.0138852558 36.7843284"></polygon>
        <polygon id="path-3" points="6.94444444e-05 0.136332086 41.5997243 0.136332086 41.5997243 26.3888889 6.94444444e-05 26.3888889"></polygon>
    </defs>
    <g id="New-Test" stroke="none" stroke-width="1" fill="none" fill-rule="evenodd">
        <g id="Home-Page----Side-Menu" transform="translate(-786.000000, -111.000000)">
            <g id="Group-7" transform="translate(786.000000, 111.000000)">
                <g id="Group-3" transform="translate(19.305556, 0.056944)">
                    <mask id="mask-2" fill="white">
                        <use xlink:href="#path-1"></use>
                    </mask>
                    <g id="Clip-2"></g>
                    <path d="M29.6663056,0.0819166667 C29.7464444,0.319138889 29.8318611,0.554833333 29.9060278,0.794 C30.4567222,2.5715 30.6975556,4.38052778 30.4868611,6.24136111 C30.1426944,9.27913889 28.7136667,11.6216389 26.0847778,13.2206667 C23.8746389,14.5648333 21.4578333,15.2523333 18.9075556,15.5166389 C16.2910278,15.7880278 13.6861667,15.5471944 11.0795,15.3216389 C9.36325,15.1730278 7.64227778,15.0698333 5.92158333,14.9855278 C5.41908333,14.9608056 4.90255556,15.0313611 4.40561111,15.1263611 C2.37186111,15.5151111 1.25255556,16.6681667 0.835888889,18.69025 C0.549638889,20.0787222 0.767555556,21.3995556 1.23936111,22.7059444 C2.12325,25.1528889 3.40047222,27.3387222 5.45463889,28.9953889 C6.69422222,29.9949722 8.09269444,30.6580278 9.69658333,30.8253889 C12.3574167,31.1030278 14.3461667,29.6333056 14.8690833,26.9984444 C14.967,26.5056667 15.0310278,26.0062222 15.11075,25.5099722 L15.2088056,25.5038611 C15.2697778,25.8796944 15.3376944,26.2546944 15.3906111,26.6316389 C15.6251944,28.3049722 15.8574167,29.9785833 15.7136667,31.6762222 C15.6378333,32.5708056 15.4500556,33.4378889 15.0501944,34.2474722 C14.1629722,36.0435833 12.677,36.8492778 10.7143611,36.78025 C8.612,36.7063611 6.86158333,35.7734444 5.34116667,34.39025 C3.50811111,32.7224722 2.42991667,30.5884444 1.68741667,28.2617778 C1.13991667,26.5458056 0.894916667,24.7688611 0.639638889,22.9958056 C0.270194444,20.4291389 0.05325,17.8460833 0.0150555556,15.2541389 C0.00186111111,14.3603889 0.100888889,13.4485833 0.279083333,12.5716389 C0.679361111,10.6019167 1.96505556,9.50455556 3.91394444,9.14691667 C5.42491667,8.86955556 6.93616667,8.99191667 8.44227778,9.18066667 C11.1771389,9.52330556 13.9172778,9.78233333 16.6768611,9.68330556 C19.7728333,9.57205556 22.7363056,8.94788889 25.4101944,7.289 C26.7943611,6.43025 27.9818611,5.36441667 28.8543611,3.97136111 C29.4851944,2.96413889 29.7303333,1.86872222 29.6295,0.689694444 C29.6128333,0.494555556 29.6042222,0.298722222 29.5918611,0.103166667 C29.6167222,0.0962222222 29.6414444,0.089 29.6663056,0.0819166667" id="Fill-1" fill="#00A5A6" mask="url(#mask-2)"></path>
                </g>
                <g id="Group-6" transform="translate(0.000000, 19.084722)">
                    <mask id="mask-4" fill="white">
                        <use xlink:href="#path-3"></use>
                    </mask>
                    <g id="Clip-5"></g>
                    <path d="M27.3735417,7.05402778 C27.9475694,6.42333333 28.5096528,5.78125 29.0984028,5.16472222 C30.1759028,4.03666667 31.2354861,2.88763889 32.3714583,1.82083333 C32.8839583,1.33958333 33.5313194,0.970833333 34.1710417,0.661805556 C36.2984028,-0.366111111 38.4057639,0.136332086 39.8910417,1.97347222 C40.8832639,3.20055556 41.3692361,4.63152778 41.5379861,6.17833333 C41.8235417,8.79680556 41.0922917,11.1919444 39.8864583,13.4745833 C39.0772917,15.0063889 38.0750694,16.4077778 36.9399306,17.7125 C35.0336806,19.9034722 33.1417361,22.1119444 30.9788194,24.0580556 C30.2539583,24.7102778 29.4539583,25.3108333 28.6050694,25.7870833 C26.8939583,26.7470833 25.2265972,26.5301389 23.6799306,25.3394444 C22.6871528,24.5752778 21.9039583,23.6166667 21.1938194,22.5984722 C19.716875,20.4811111 18.2111806,18.3858333 16.5170139,16.4341667 C14.2292361,13.79875 11.5378472,11.7081944 8.27493056,10.40875 C6.95104167,9.88138889 5.58243056,9.56694444 4.140625,9.6875 C2.970625,9.78541667 1.94534722,10.2194444 1.064375,10.9931944 C0.719513889,11.29625 0.382569444,11.6081944 6.94444444e-05,11.8897222 C0.0586805556,11.8011111 0.106597222,11.7029167 0.177291667,11.6251389 C1.47673611,10.1963889 2.75006944,8.74222222 4.08868056,7.35083333 C5.43854167,5.94777778 7.17326389,5.50347222 9.06673611,5.59208333 C12.4022917,5.74805556 15.2103472,7.17013889 17.7290972,9.25652778 C19.6759028,10.8693056 21.283125,12.7984722 22.7934028,14.8095833 C23.8077083,16.1601389 24.7709028,17.54875 25.7797917,18.9034722 C26.4174306,19.7597222 27.1500694,20.5275 28.0321528,21.1481944 C29.4336806,22.1345833 30.8740972,22.1459722 32.3453472,21.3463889 C33.8346528,20.5370833 34.9028472,19.2938889 35.7570139,17.8677778 C37.0571528,15.6972222 37.6692361,13.3375 37.4954861,10.8033333 C37.3942361,9.32541667 36.9552083,7.94263889 36.1138194,6.70805556 C34.626875,4.52652778 32.2710417,3.91541667 29.9470139,5.17388889 C29.2136806,5.57111111 28.5746528,6.14555556 27.905625,6.65625 C27.7346528,6.78680556 27.6136806,6.98291667 27.4697917,7.14888889 C27.4377083,7.11722222 27.405625,7.08569444 27.3735417,7.05402778" id="Fill-4" fill="#07BAEA" mask="url(#mask-4)"></path>
                </g>
            </g>
        </g>
    </g>
</svg>
